HIERARCHY
ROOT reference
{
  OFFSET 0 0 0
  CHANNELS 6 Xposition Yposition Zposition Zrotation Xrotation Yrotation
  JOINT Hips
  {
    OFFSET 38.9259 73.8127 -168.747
    CHANNELS 6 Xposition Yposition Zposition Zrotation Xrotation Yrotation
    JOINT Spine
    {
      OFFSET 0 7.85829 0
      CHANNELS 6 Xposition Yposition Zposition Zrotation Xrotation Yrotation
      JOINT Spine1
      {
        OFFSET 0 25.1384 0
        CHANNELS 6 Xposition Yposition Zposition Zrotation Xrotation Yrotation
        JOINT Neck
        {
          OFFSET 0 25.0351 2.27592
          CHANNELS 6 Xposition Yposition Zposition Zrotation Xrotation Yrotation
          JOINT Head
          {
            OFFSET 0 13.4166 -1.91665
            CHANNELS 6 Xposition Yposition Zposition Zrotation Xrotation Yrotation
            End Site
            {
              OFFSET 0 23.9582 0
            }
          }
        }
        JOINT LeftShoulder
        {
          OFFSET 3.81534 24.0346 -0.234509
          CHANNELS 6 Xposition Yposition Zposition Zrotation Xrotation Yrotation
          JOINT LeftArm
          {
            OFFSET 8.62273 0 0
            CHANNELS 6 Xposition Yposition Zposition Zrotation Xrotation Yrotation
            JOINT LeftForeArm
            {
              OFFSET 31.7064 0 0
              CHANNELS 6 Xposition Yposition Zposition Zrotation Xrotation Yrotation
              JOINT LeftHand
              {
                OFFSET 23.7731 0 0
                CHANNELS 6 Xposition Yposition Zposition Zrotation Xrotation Yrotation
                End Site
                {
                  OFFSET 14.3749 0 0
                }
              }
            }
          }
        }
        JOINT RightShoulder
        {
          OFFSET -3.83608 24.0346 -0.234509
          CHANNELS 6 Xposition Yposition Zposition Zrotation Xrotation Yrotation
          JOINT RightArm
          {
            OFFSET -8.62273 0 0
            CHANNELS 6 Xposition Yposition Zposition Zrotation Xrotation Yrotation
            JOINT RightForeArm
            {
              OFFSET -31.7064 0 0
              CHANNELS 6 Xposition Yposition Zposition Zrotation Xrotation Yrotation
              JOINT RightHand
              {
                OFFSET -23.7731 0 0
                CHANNELS 6 Xposition Yposition Zposition Zrotation Xrotation Yrotation
                End Site
                {
                  OFFSET -14.3749 0 0
                }
              }
            }
          }
        }
      }
    }
    JOINT LeftUpLeg
    {
      OFFSET 9.58328 0 0
      CHANNELS 6 Xposition Yposition Zposition Zrotation Xrotation Yrotation
      JOINT LeftLeg
      {
        OFFSET 0 -36.4535 0
        CHANNELS 6 Xposition Yposition Zposition Zrotation Xrotation Yrotation
        JOINT LeftFoot
        {
          OFFSET 0 -41.4659 0
          CHANNELS 6 Xposition Yposition Zposition Zrotation Xrotation Yrotation
          JOINT LeftToeBase
          {
            OFFSET 0 -6.22913 14.3749
            CHANNELS 6 Xposition Yposition Zposition Zrotation Xrotation Yrotation
            End Site
            {
              OFFSET 0 0 3.83331
            }
          }
        }
      }
    }
    JOINT RightUpLeg
    {
      OFFSET -9.58328 0 0
      CHANNELS 6 Xposition Yposition Zposition Zrotation Xrotation Yrotation
      JOINT RightLeg
      {
        OFFSET 0 -36.4535 0
        CHANNELS 6 Xposition Yposition Zposition Zrotation Xrotation Yrotation
        JOINT RightFoot
        {
          OFFSET 0 -41.4659 0
          CHANNELS 6 Xposition Yposition Zposition Zrotation Xrotation Yrotation
          JOINT RightToeBase
          {
            OFFSET 0 -6.22913 14.3749
            CHANNELS 6 Xposition Yposition Zposition Zrotation Xrotation Yrotation
            End Site
            {
              OFFSET 0 0 3.83331
            }
          }
        }
      }
    }
  }
}
MOTION
Frames:	11
Frame Time:	0.004
0 0 0 0 0 -0 -10.0891 77.192 -205.944 2.36649 -2.70063 -1.46948 1.77636e-015 7.85829 0 -2.75983 -6.54661 1.58834 -3.55271e-015 25.1384 2.84217e-014 1.16722 -1.34771 1.76784 8.88178e-016 25.0351 2.27592 -1.08548 34.7704 1.00792 0 13.4166 -1.91665 1.10191 -9.83887 1.09652 3.81534 24.0346 -0.234509 7.86361 3.15359 5.00725 8.62273 2.84217e-014 0 -10.7034 -1.28274 -4.68771 31.7064 2.84217e-014 0 3.2046 -1.287 1.2168 23.7731 0 5.68434e-014 5.22875 -1.40065 -1.74294 -3.83608 24.0346 -0.234509 -7.82313 1.74909 3.76715 -8.62273 0 -2.84217e-014 4.93595 -3.55269 0.108922 -31.7064 2.84217e-014 0 -2.0837 -0.296609 1.46436 -23.7731 2.84217e-014 0 -15.8105 -0.400446 0.939796 9.58328 0 0 0.557221 10.584 -0.552385 -1.33227e-015 -36.4535 0 -8.77252 -5.54384 6.2322 0 -41.4659 0 13.7772 -10.3065 5.33527 0 -6.22913 14.3749 -7.95139e-016 2.38542e-015 -1.59028e-015 -9.58328 -1.42109e-014 0 -2.82708 4.95531 2.7519 -3.55271e-015 -36.4535 0 5.0109 6.20093 5.45245 -3.55271e-015 -41.4659 0 -22.4764 -13.661 -22.753 0 -6.22913 14.3749 3.18055e-015 -3.18055e-015 -4.77083e-015 
0 0 0 0 0 -0 -10.0891 77.192 -205.944 2.37131 -2.69358 -1.46493 0 7.85829 0 -2.77397 -6.55724 1.58837 0 25.1384 0 1.19426 -1.32301 1.76576 -8.88178e-016 25.0351 2.27592 -1.04112 34.7383 0.980773 -1.77636e-015 13.4166 -1.91665 0.965448 -9.78824 1.04558 3.81534 24.0346 -0.234509 7.8328 3.15353 5.02089 8.62273 -2.84217e-014 2.84217e-014 -10.7108 -1.27797 -4.71133 31.7064 0 0 3.19704 -1.30222 1.21681 23.7731 -2.84217e-014 0 5.22118 -1.41712 -1.77517 -3.83608 24.0346 -0.234509 -7.84766 1.73297 3.7737 -8.62273 0 0 4.96562 -3.50839 0.108917 -31.7064 -2.84217e-014 -2.84217e-014 -2.05173 -0.238366 1.46445 -23.7731 2.84217e-014 -2.84217e-014 -15.8415 -0.355036 1.02537 9.58328 0 0 0.552265 10.6082 -0.52422 0 -36.4535 0 -8.75323 -5.59145 6.27051 -3.55271e-015 -41.4659 0 13.8045 -10.3015 5.2608 0 -6.22913 14.3749 1.98785e-016 0 -0 -9.58328 0 0 -2.8229 4.94845 2.7386 0 -36.4535 0 4.99765 6.21464 5.47504 0 -41.4659 0 -22.439 -13.6844 -22.7699 0 -6.22913 14.3749 -2.78299e-015 0 3.18055e-015 
0 0 0 0 0 -0 -10.0891 77.192 -205.944 2.38219 -2.66101 -1.49081 0 7.85829 0 -2.77934 -6.5649 1.5884 0 25.1384 0 1.1901 -1.34672 1.77734 0 25.0351 2.27592 -1.05833 34.7479 0.978884 0 13.4166 -1.91665 0.968002 -9.79214 1.04097 3.81534 24.0346 -0.234509 7.83412 3.16576 5.02374 8.62273 -2.84217e-014 2.84217e-014 -10.7234 -1.23069 -4.71961 31.7064 -2.84217e-014 -2.84217e-014 3.21651 -1.36384 1.22172 23.7731 2.84217e-014 -2.84217e-014 5.15279 -1.47697 -1.75306 -3.83608 24.0346 -0.234509 -7.84158 1.73715 3.7833 -8.62273 0 0 4.96493 -3.53698 0.10892 -31.7064 -2.84217e-014 2.84217e-014 -1.90686 -0.280882 1.48196 -23.7731 0 0 -16.6461 -0.393083 0.936134 9.58328 -1.42109e-014 0 0.55143 10.5655 -0.521764 -1.33227e-015 -36.4535 0 -8.76654 -5.58966 6.26336 0 -41.4659 0 13.802 -10.29 5.29107 0 -6.22913 14.3749 -1.98785e-015 7.95139e-016 1.59028e-015 -9.58328 0 0 -2.83817 4.87833 2.75072 -1.77636e-015 -36.4535 0 5.00124 6.26897 5.55802 3.55271e-015 -41.4659 0 -22.4776 -13.6857 -22.8432 0 -6.22913 14.3749 -3.97569e-016 1.59028e-015 -1.59028e-015 
0 0 0 0 0 -0 -10.0891 77.192 -205.944 2.38128 -2.66053 -1.48975 0 7.85829 0 -2.78465 -6.56442 1.58839 0 25.1384 0 1.20396 -1.33925 1.7773 8.88178e-016 25.0351 2.27592 -1.10047 34.7636 0.985392 1.77636e-015 13.4166 -1.91665 0.98759 -9.81678 1.0444 3.81534 24.0346 -0.234509 7.82148 3.16411 5.02746 8.62273 0 0 -10.7317 -1.21198 -4.72751 31.7064 -2.84217e-014 0 3.2197 -1.38665 1.22682 23.7731 2.84217e-014 0 5.16712 -1.50123 -1.77552 -3.83608 24.0346 -0.234509 -7.85825 1.7325 3.78858 -8.62273 0 0 4.9821 -3.54157 0.107392 -31.7064 0 0 -1.90684 -0.268864 1.48834 -23.7731 2.84217e-014 0 -16.6428 -0.380258 0.930275 9.58328 0 2.84217e-014 0.560727 10.5658 -0.512557 4.44089e-016 -36.4535 0 -8.77995 -5.58066 6.24701 3.55271e-015 -41.4659 0 13.82 -10.2831 5.30192 0 -6.22913 14.3749 -2.38542e-015 1.59028e-015 -0 -9.58328 0 0 -2.83401 4.88452 2.7723 -3.55271e-015 -36.4535 0 5.005 6.25266 5.47669 0 -41.4659 0 -22.6921 -13.6463 -22.8014 0 -6.22913 14.3749 -3.97569e-016 0 1.59028e-015 
0 0 0 0 0 -0 -10.0891 77.192 -205.944 2.38427 -2.66158 -1.4825 0 7.85829 0 -2.77485 -6.56363 1.58839 0 25.1384 0 1.1847 -1.33345 1.77351 0 25.0351 2.27592 -1.10995 34.7587 0.983737 0 13.4166 -1.91665 0.994611 -9.80655 1.04245 3.81534 24.0346 -0.234509 7.8236 3.19061 5.03079 8.62273 -2.84217e-014 0 -10.738 -1.18363 -4.74154 31.7064 -2.84217e-014 2.84217e-014 3.22606 -1.42419 1.23327 23.7731 2.84217e-014 0 5.15914 -1.5402 -1.80411 -3.83608 24.0346 -0.234509 -7.84608 1.73316 3.78347 -8.62273 0 0 4.98329 -3.53666 0.120339 -31.7064 2.84217e-014 0 -1.8982 -0.260117 1.49001 -23.7731 -2.84217e-014 0 -16.6687 -0.373511 0.939987 9.58328 1.42109e-014 2.84217e-014 0.557668 10.5842 -0.493895 0 -36.4535 0 -8.7803 -5.60247 6.21426 3.55271e-015 -41.4659 0 13.7449 -10.2735 5.30074 0 -6.22913 14.3749 -1.98785e-016 1.59028e-015 1.59028e-015 -9.58328 0 2.84217e-014 -2.83392 4.89139 2.77929 1.77636e-015 -36.4535 2.84217e-014 5.01499 6.24441 5.38186 3.55271e-015 -41.4659 -2.84217e-014 -22.4586 -13.724 -22.7285 -1.42109e-014 -6.22913 14.3749 5.1684e-015 1.59028e-015 1.59028e-015 
0 0 0 0 0 -0 -10.091 77.192 -205.944 2.3879 -2.65831 -1.47665 0 7.85829 0 -2.79925 -6.56947 1.58841 0 25.1384 0 1.22942 -1.32111 1.77049 -8.88178e-016 25.0351 2.27592 -1.05975 34.7565 0.956381 -1.77636e-015 13.4166 -1.91665 0.854526 -9.79844 0.991634 3.81534 24.0346 -0.234509 7.79448 3.1832 5.03041 8.62273 0 0 -10.746 -1.1581 -4.74522 31.7064 -2.84217e-014 2.84217e-014 3.22713 -1.44972 1.23893 23.7731 0 0 5.16565 -1.56603 -1.80537 -3.83608 24.0346 -0.234509 -7.86837 1.74363 3.79819 -8.62273 -5.68434e-014 0 4.98123 -3.57581 0.110961 -31.7064 2.84217e-014 0 -1.85565 -0.150919 1.49129 -23.7731 0 2.84217e-014 -16.6491 -0.253119 0.862484 9.58328 0 0 0.552755 10.5935 -0.46913 0 -36.4535 0 -8.77306 -5.61904 6.24277 -3.55271e-015 -41.4659 0 13.7461 -10.2805 5.25803 0 -6.22913 14.3749 -1.98785e-016 1.59028e-015 1.59028e-015 -9.58328 1.42109e-014 0 -2.83424 4.89163 2.77353 -3.55271e-015 -36.4535 2.84217e-014 5.01102 6.24132 5.34139 0 -41.4659 0 -22.4542 -13.7425 -22.6768 1.42109e-014 -6.22913 14.3749 -1.19271e-015 -1.59028e-015 -3.18055e-015 
0 0 0 0 0 -0 -10.0934 77.192 -205.943 2.39112 -2.63783 -1.45569 -1.77636e-015 7.85829 0 -2.79215 -6.58064 1.58845 0 25.1384 -2.84217e-014 1.20461 -1.32012 1.7629 0 25.0351 2.27592 -1.05135 34.7382 0.950722 0 13.4166 -1.91665 0.838336 -9.77496 0.983599 3.81534 24.0346 -0.234509 7.80777 3.19075 5.0363 8.62273 0 0 -10.7545 -1.17283 -4.75958 31.7064 0 2.84217e-014 3.23283 -1.49665 1.24105 23.7731 -2.84217e-014 0 5.12916 -1.61146 -1.78347 -3.83608 24.0346 -0.234509 -7.85944 1.73085 3.78782 -8.62273 2.84217e-014 -2.84217e-014 4.99154 -3.58128 0.121442 -31.7064 -2.84217e-014 -2.84217e-014 -1.8526 -0.142069 1.49223 -23.7731 -2.84217e-014 0 -16.6803 -0.241233 0.840486 9.58328 0 0 0.554759 10.5557 -0.48792 4.44089e-016 -36.4535 0 -8.7707 -5.59397 6.27015 0 -41.4659 0 13.7739 -10.2999 5.22465 0 -6.22913 14.3749 -1.39149e-015 2.38542e-015 4.77083e-015 -9.58328 0 0 -2.83774 4.87093 2.77151 3.55271e-015 -36.4535 -2.84217e-014 5.01203 6.24083 5.29605 -3.55271e-015 -41.4659 0 -22.5298 -13.7406 -22.6574 0 -6.22913 14.3749 2.78299e-015 1.59028e-015 -1.59028e-015 
0 0 0 0 0 -0 -10.0973 77.192 -205.934 2.38424 -2.6522 -1.45107 0 7.85829 0 -2.78677 -6.58176 1.58685 0 25.1384 0 1.20821 -1.30395 1.76063 8.88178e-016 25.0351 2.27592 -1.10912 34.7558 0.947681 1.77636e-015 13.4166 -1.91665 0.896974 -9.80544 0.991736 3.81534 24.0346 -0.234509 7.80525 3.19762 5.04194 8.62273 2.84217e-014 0 -10.7629 -1.16906 -4.77609 31.7064 5.68434e-014 2.84217e-014 3.23801 -1.52659 1.24278 23.7731 0 0 5.09091 -1.64028 -1.76778 -3.83608 24.0346 -0.234509 -7.86963 1.73104 3.78149 -8.62273 -2.84217e-014 0 4.99995 -3.58854 0.136175 -31.7064 2.84217e-014 0 -1.83114 -0.14085 1.49283 -23.7731 0 0 -16.7178 -0.240537 0.841907 9.58328 0 0 0.567414 10.591 -0.468794 0 -36.4535 2.84217e-014 -8.77238 -5.62353 6.21566 3.55271e-015 -41.4659 -2.84217e-014 13.7538 -10.2766 5.24041 -7.10543e-015 -6.22913 14.3749 2.5842e-015 -1.59028e-015 1.59028e-015 -9.58328 0 0 -2.82295 4.89676 2.79023 -3.55271e-015 -36.4535 2.84217e-014 5.00776 6.23754 5.27915 -1.77636e-015 -41.4659 0 -22.5144 -13.7351 -22.6671 0 -6.22913 14.3749 -7.95139e-016 0 -0 
0 0 0 0 0 -0 -10.1014 77.192 -205.932 2.3812 -2.64789 -1.43212 -3.55271e-015 7.85829 0 -2.79386 -6.58263 1.57752 0 25.1384 0 1.22906 -1.29188 1.75186 -1.77636e-015 25.0351 2.27592 -1.10988 34.7456 0.944771 0 13.4166 -1.91665 0.852885 -9.80099 0.976983 3.81534 24.0346 -0.234509 7.78081 3.18612 5.04294 8.62273 0 -2.84217e-014 -10.7688 -1.1168 -4.7815 31.7064 -2.84217e-014 0 3.23759 -1.52493 1.24429 23.7731 5.68434e-014 0 5.07948 -1.63713 -1.74002 -3.83608 24.0346 -0.234509 -7.87083 1.7037 3.78212 -8.62273 0 0 4.99686 -3.53572 0.132762 -31.7064 -2.84217e-014 0 -1.84514 -0.153391 1.49312 -23.7731 0 0 -16.6849 -0.252255 0.834573 9.58328 1.42109e-014 0 0.58534 10.5834 -0.483828 -4.44089e-016 -36.4535 2.84217e-014 -8.79801 -5.60907 6.27172 0 -41.4659 0 13.7683 -10.2883 5.20708 0 -6.22913 14.3749 3.97569e-016 0 -0 -9.58328 -1.42109e-014 0 -2.81965 4.89634 2.79904 1.77636e-015 -36.4535 2.84217e-014 5.01685 6.23351 5.28522 0 -41.4659 2.84217e-014 -22.4415 -13.7435 -22.685 0 -6.22913 14.3749 3.18055e-015 1.59028e-015 -1.59028e-015 
0 0 0 0 0 -0 -10.1038 77.192 -205.926 2.38015 -2.6466 -1.4295 -1.77636e-015 7.85829 -2.84217e-014 -2.79378 -6.58324 1.57764 -1.77636e-015 25.1384 2.84217e-014 1.23375 -1.28136 1.75197 1.77636e-015 25.0351 2.27592 -1.12156 34.7494 0.94256 -1.77636e-015 13.4166 -1.91665 0.832764 -9.80677 0.961031 3.81534 24.0346 -0.234509 7.77799 3.19428 5.0434 8.62273 -2.84217e-014 2.84217e-014 -10.7773 -1.11829 -4.78776 31.7064 -2.84217e-014 0 3.23767 -1.55972 1.2458 23.7731 2.84217e-014 0 5.10673 -1.67152 -1.72101 -3.83608 24.0346 -0.234509 -7.88331 1.7155 3.78141 -8.62273 -2.84217e-014 0 5.00732 -3.5414 0.142592 -31.7064 0 2.84217e-014 -1.84254 -0.161363 1.48916 -23.7731 0 0 -16.6903 -0.261242 0.845113 9.58328 -1.42109e-014 -2.84217e-014 0.575393 10.6054 -0.420577 1.33227e-015 -36.4535 2.84217e-014 -8.77805 -5.6518 6.26163 0 -41.4659 2.84217e-014 13.7363 -10.2812 5.13324 0 -6.22913 14.3749 -3.97569e-016 -7.95139e-016 -0 -9.58328 1.42109e-014 0 -2.81301 4.90262 2.78888 -1.77636e-015 -36.4535 0 5.00494 6.22971 5.26875 -1.77636e-015 -41.4659 0 -22.4904 -13.7494 -22.6634 1.42109e-014 -6.22913 14.3749 4.77083e-015 3.18055e-015 1.59028e-015 
0 0 0 0 0 -0 -10.1063 77.192 -205.924 2.38015 -2.63437 -1.41123 0 7.85829 0 -2.80555 -6.58368 1.56857 -1.77636e-015 25.1384 0 1.2495 -1.27391 1.74499 1.77636e-015 25.0351 2.27592 -1.12612 34.7385 0.942916 1.77636e-015 13.4166 -1.91665 0.801847 -9.7901 0.953499 3.81534 24.0346 -0.234509 7.76659 3.20421 5.04789 8.62273 0 0 -10.7846 -1.18067 -4.80172 31.7064 -2.84217e-014 0 3.22117 -1.54061 1.24745 23.7731 0 -2.84217e-014 5.07976 -1.65398 -1.76593 -3.83608 24.0346 -0.234509 -7.89773 1.71474 3.78039 -8.62273 0 -2.84217e-014 5.0145 -3.55206 0.151096 -31.7064 0 0 -1.90325 -0.120449 1.47762 -23.7731 0 0 -16.3619 -0.223291 0.887527 9.58328 0 -2.84217e-014 0.581864 10.5883 -0.45949 4.44089e-016 -36.4535 2.84217e-014 -8.78865 -5.65033 6.31985 0 -41.4659 0 13.7264 -10.2775 5.09348 7.10543e-015 -6.22913 14.3749 -5.96354e-016 0 -3.18055e-015 -9.58328 1.42109e-014 0 -2.81289 4.88569 2.78122 3.55271e-015 -36.4535 0 5.00526 6.24655 5.27419 1.77636e-015 -41.4659 2.84217e-014 -22.5686 -13.7286 -22.6993 0 -6.22913 14.3749 5.96354e-015 -1.59028e-015 -0 
